<svg width="1000" height="1000" viewBox="0 0 1000 1000" fill="none" xmlns="http://www.w3.org/2000/svg">
<rect width="1000" height="1000" fill="#FF7315"/>
<path d="M900.5 895.5H903.5L900.5 898.5V895.5Z" fill="#0F0D0D" stroke="#0F0D0D" stroke-width="1.25"/>
<path d="M104.5 99.5H101.5L104.5 96.5V99.5Z" fill="#0F0D0D" stroke="#0F0D0D" stroke-width="1.25"/>
<rect x="105" y="95" width="10" height="800" fill="#0F0D0D"/>
<rect x="105" y="895" width="10" height="800" transform="rotate(-90 105 895)" fill="#0F0D0D"/>
<rect x="100" y="100" width="10" height="800" fill="#232020"/>
<rect x="100" y="900" width="10" height="800" transform="rotate(-90 100 900)" fill="#232020"/>
<rect x="477" y="299" width="71" height="514" fill="#322F2F"/>
<rect x="465" y="311" width="71" height="514" fill="#3A3535"/>
<path d="M546.5 813.5H536.5V823.5L546.5 813.5Z" fill="#322F2F" stroke="#322F2F"/>
<path d="M476.5 300.5L466.5 310.5H476.5V300.5Z" fill="#322F2F" stroke="#322F2F" stroke-width="1.25"/>
<rect x="619" y="387" width="71" height="428" fill="#322F2F"/>
<rect x="607" y="398.921" width="71" height="426.079" fill="#3A3535"/>
<path d="M688.5 815.467H678.5V823.757L688.5 815.467Z" fill="#322F2F" stroke="#322F2F"/>
<path d="M618.5 388.5L608.5 398.5H618.5V388.5Z" fill="#322F2F" stroke="#322F2F" stroke-width="1.25"/>
<rect x="761" y="196" width="71" height="619" fill="#322F2F"/>
<rect x="749" y="208" width="71" height="617" fill="#3A3535"/>
<path d="M830.5 815.467H820.5V823.757L830.5 815.467Z" fill="#322F2F" stroke="#322F2F"/>
<path d="M760.5 197.5L750.5 207.5H760.5V197.5Z" fill="#322F2F" stroke="#322F2F" stroke-width="1.25"/>
<rect x="193" y="475" width="71" height="338" fill="#322F2F"/>
<rect x="181" y="487" width="71" height="338" fill="#3A3535"/>
<path d="M262.5 813.5H252.5V823.5L262.5 813.5Z" fill="#322F2F" stroke="#322F2F"/>
<path d="M192.5 476.5L182.5 486.5H192.5V476.5Z" fill="#322F2F" stroke="#322F2F" stroke-width="1.25"/>
<rect x="335" y="554" width="71" height="259" fill="#322F2F"/>
<rect x="323" y="566" width="71" height="259" fill="#3A3535"/>
<path d="M404.5 813.5H394.5V823.5L404.5 813.5Z" fill="#322F2F" stroke="#322F2F"/>
<path d="M334.5 555.5L324.5 565.5H334.5V555.5Z" fill="#322F2F" stroke="#322F2F" stroke-width="1.25"/>
</svg>
